<svg width="26" height="26" viewBox="0 0 26 26" fill="none" xmlns="http://www.w3.org/2000/svg">
<g clip-path="url(#clip0)">
<path d="M24.3831 2.32629H1.61693C0.725359 2.32629 0 3.0516 0 3.94317V5.84604C0 6.73761 0.725359 7.46297 1.61693 7.46297H2.37392L10.7303 15.8194V23.1347C10.7303 23.3527 10.8617 23.5493 11.0631 23.6327C11.1297 23.6603 11.1998 23.6737 11.2692 23.6737C11.4095 23.6737 11.5474 23.619 11.6504 23.5158L15.1319 20.0343C15.233 19.9332 15.2898 19.7961 15.2898 19.6532V15.8193L23.6461 7.46297H24.3831C25.2747 7.46297 26 6.73761 26 5.84604V3.94317C26 3.0516 25.2746 2.32629 24.3831 2.32629ZM14.3695 15.2151C14.263 15.3216 14.2106 15.4614 14.2118 15.6009V19.43L11.8083 21.8336V15.5978C11.8086 15.4593 11.7561 15.3208 11.6505 15.2151L3.89837 7.46297H22.1216L14.3695 15.2151ZM24.9221 5.84604C24.9221 6.14322 24.6803 6.38504 24.3831 6.38504H1.61693C1.31975 6.38504 1.07793 6.14327 1.07793 5.84604V3.94317C1.07793 3.646 1.3197 3.40418 1.61693 3.40418H24.3831C24.6803 3.40418 24.9221 3.64595 24.9221 3.94317V5.84604H24.9221Z" fill="#BFA764"/>
</g>
<defs>
<clipPath id="clip0">
<rect width="26" height="26" fill="white"/>
</clipPath>
</defs>
</svg>
