<svg width="26" height="26" viewBox="0 0 26 26" fill="none" xmlns="http://www.w3.org/2000/svg">
<path d="M22.349 6.65509L15.251 6.73368L11.7701 12.9217L15.3893 19.0286L22.4874 18.9487L25.9682 12.762L22.349 6.65509ZM21.8638 17.8952L15.9901 17.9627L12.9958 12.9088L15.8758 7.78852L21.7495 7.72227L24.7432 12.775L21.8638 17.8952Z" fill="#BFA764"/>
<path d="M10.7491 12.2969L14.2286 6.10882L10.6094 0L3.51139 0.0811911L0.0318604 6.26796L3.64974 12.3748L10.7491 12.2969ZM4.13429 1.13408L10.0106 1.06783L13.003 6.12181L10.1242 11.2421L4.2499 11.3096L1.25752 6.25432L4.13429 1.13408Z" fill="#BFA764"/>
<path d="M3.66597 13.7037L0.185791 19.8905L3.80367 26L10.903 25.9201L14.3825 19.732L10.764 13.6226L3.66597 13.7037ZM10.2775 24.8659L4.40318 24.9335L1.4095 19.8769L4.28887 14.7579L10.1645 14.6897L13.1569 19.745L10.2775 24.8659Z" fill="#BFA764"/>
</svg>
