<svg width="26" height="26" viewBox="0 0 26 26" fill="none" xmlns="http://www.w3.org/2000/svg">
<g clip-path="url(#clip0)">
<path d="M13.0541 4.5451C8.39217 4.5451 4.59924 8.3378 4.59924 13C4.59924 17.6619 8.39217 21.4548 13.0541 21.4548C17.7162 21.4548 21.5089 17.6619 21.5089 13C21.5089 8.3378 17.7162 4.5451 13.0541 4.5451ZM8.79873 19.187V16.2233C8.80104 15.3114 9.48187 14.5435 10.3869 14.432C11.583 15.826 13.6511 16.0631 15.1314 14.976C15.348 14.8176 15.5456 14.6352 15.7206 14.432C16.6261 14.5435 17.3069 15.3112 17.3095 16.2233V19.187C16.0683 20.0204 14.6307 20.5092 13.0541 20.5092C11.4775 20.5092 10.0399 20.0204 8.79873 19.187ZM18.2551 18.4161V16.2233C18.2512 14.7045 17.0199 13.4746 15.5008 13.4728C15.3505 13.4728 15.209 13.5446 15.1199 13.6658C14.6369 14.3233 13.87 14.7118 13.0541 14.7118C12.2382 14.7118 11.471 14.3233 10.9881 13.6658C10.8992 13.5446 10.7576 13.4728 10.6074 13.4728C9.08847 13.4746 7.85702 14.7045 7.8531 16.2233V18.4161C6.37785 17.0004 5.54326 15.0445 5.54211 13C5.54211 8.85933 8.91209 5.49074 13.0527 5.49074C17.1933 5.49074 20.5652 8.85957 20.5652 13C20.5645 15.0445 19.7301 17.0004 18.2551 18.4161Z" fill="#BFA764"/>
<path d="M24.5301 14.3263C24.6444 13.2722 24.6167 12.2074 24.4481 11.1604L25.7567 9.90544C25.8998 9.7683 25.9421 9.55636 25.8627 9.37467L24.3729 5.96914C24.2925 5.78537 24.1051 5.67224 23.9049 5.68725L22.0935 5.82046C21.4415 4.98148 20.6679 4.24455 19.7982 3.63414L19.8513 1.82459C19.8573 1.6242 19.7361 1.44181 19.5491 1.36955L16.0829 0.0316726C15.8966 -0.0401274 15.6851 0.0127414 15.5546 0.16396L14.3809 1.52423C13.3265 1.41019 12.2615 1.43766 11.2146 1.60619L9.95956 0.297633C9.82242 0.154494 9.61048 0.112246 9.42879 0.191664L6.02349 1.68192C5.83972 1.76226 5.72659 1.94972 5.74137 2.14966L5.87458 3.96128C5.0356 4.61325 4.29867 5.38689 3.68826 6.25634L1.87871 6.20324C1.67809 6.19654 1.49547 6.31798 1.42367 6.50567L0.0860226 9.97169C0.0139918 10.158 0.0668606 10.3692 0.218079 10.4999L1.57858 11.6737C1.4643 12.7278 1.49178 13.7926 1.66054 14.8395L0.351752 16.0945C0.208614 16.2317 0.166365 16.4436 0.246014 16.6253L1.73604 20.0306C1.81638 20.2144 2.00384 20.3275 2.20401 20.3127L4.0154 20.1795C4.66737 21.0185 5.44101 21.7554 6.31046 22.3658L6.25736 24.1754C6.25135 24.3758 6.37256 24.5582 6.55979 24.6304L10.026 25.9683C10.2124 26.0403 10.4238 25.9875 10.5543 25.836L11.7278 24.4755C12.7819 24.5898 13.8467 24.5623 14.8937 24.3938L16.1487 25.7023C16.286 25.8455 16.4977 25.8877 16.6794 25.8083L20.085 24.3183C20.2685 24.238 20.3816 24.0505 20.3669 23.8506L20.2336 22.0392C21.0726 21.387 21.8095 20.6133 22.42 19.7436L24.2295 19.7967C24.4299 19.8025 24.6123 19.6813 24.6845 19.4943L26.0224 16.0281C26.0942 15.8417 26.0414 15.6305 25.8901 15.4998L24.5301 14.3263ZM23.9227 18.8416L22.1898 18.7906C22.0266 18.7855 21.8726 18.8652 21.7823 19.0012C21.1562 19.9415 20.371 20.7659 19.4623 21.4373C19.3319 21.5338 19.2598 21.6903 19.2718 21.8522L19.3993 23.586L16.6028 24.8094L15.4023 23.5576C15.2924 23.4431 15.1324 23.3914 14.9761 23.42C13.8603 23.6241 12.7198 23.6536 11.595 23.5073C11.4373 23.4867 11.2799 23.5467 11.176 23.6672L10.0558 24.9659L7.21246 23.8688L7.26325 22.1357C7.2681 21.9729 7.18868 21.8189 7.05316 21.7284C6.1126 21.1021 5.28817 20.3171 4.61681 19.4084C4.5203 19.278 4.36378 19.2062 4.20194 19.218L2.46812 19.3454L1.24475 16.5489L2.49628 15.3484C2.61103 15.2385 2.66274 15.0785 2.63411 14.9222C2.4298 13.8064 2.40047 12.6659 2.54684 11.5411C2.56739 11.3835 2.50714 11.226 2.38685 11.1221L1.08799 10.0015L2.18531 7.15811L3.91843 7.20913C4.08119 7.21375 4.23518 7.13433 4.32568 6.99858C4.95203 6.05825 5.73698 5.23405 6.64591 4.56246C6.77635 4.46619 6.84815 4.30943 6.83614 4.14782L6.7087 2.41377L9.50521 1.1904L10.7057 2.44217C10.8156 2.55668 10.9758 2.60839 11.1319 2.57999C12.2479 2.37544 13.3889 2.34589 14.5139 2.49249C14.6716 2.51304 14.829 2.45279 14.9329 2.3325L16.0533 1.03387L18.8965 2.13119L18.8454 3.86408C18.8406 4.02707 18.92 4.18106 19.0558 4.27156C19.9961 4.89768 20.8205 5.68286 21.4919 6.59156C21.5884 6.722 21.7449 6.7938 21.9067 6.78202L23.6406 6.65458L24.8642 9.45109L23.6124 10.6516C23.4979 10.7615 23.4459 10.9215 23.4746 11.0778C23.6789 12.1936 23.7084 13.3341 23.5621 14.4588C23.5415 14.6165 23.6015 14.7737 23.7221 14.8776L25.0202 15.9983L23.9227 18.8416Z" fill="#BFA764"/>
<path d="M13.054 7.3913C11.3955 7.3913 10.0509 8.73564 10.0509 10.3942C10.0509 12.053 11.3955 13.3973 13.054 13.3973C14.7126 13.3973 16.0572 12.0528 16.0572 10.3942C16.0553 8.73656 14.7119 7.39314 13.054 7.3913ZM13.054 12.4517C11.9177 12.4517 10.9965 11.5305 10.9965 10.3942C10.9965 9.25786 11.9177 8.3367 13.054 8.3367C14.1904 8.3367 15.1115 9.25786 15.1115 10.3942C15.1101 11.5301 14.1899 12.4503 13.054 12.4517Z" fill="#BFA764"/>
</g>
<defs>
<clipPath id="clip0">
<rect width="26" height="26" fill="white"/>
</clipPath>
</defs>
</svg>
