<svg width="26" height="26" viewBox="0 0 26 26" fill="none" xmlns="http://www.w3.org/2000/svg">
<g clip-path="url(#clip0)">
<path d="M25.8468 3.64911L22.3496 0.152407C22.2521 0.0548755 22.1199 0 21.9819 0H13.773C13.6351 0 13.5029 0.0548755 13.4054 0.152407L0.151486 13.4063C-0.0517975 13.6093 -0.0517975 13.9384 0.151486 14.1417L11.8575 25.8477C11.959 25.9492 12.0921 26.0001 12.2252 26.0001C12.3583 26.0001 12.4914 25.9492 12.5929 25.8477L25.8468 12.5938C25.9443 12.4963 25.9992 12.3643 25.9992 12.2261V4.0168C25.9992 3.87861 25.9443 3.74664 25.8468 3.64911ZM24.959 12.0108L12.2252 24.7446L1.25433 13.774L13.9883 1.03997H21.7667L24.959 4.23208V12.0108Z" fill="#BFA764"/>
<path d="M18.248 4.13967C17.7659 4.62156 17.5002 5.2634 17.5002 5.94657C17.5002 6.62951 17.7659 7.27135 18.248 7.75324C18.7461 8.25156 19.4002 8.50039 20.0549 8.50039C20.709 8.50039 21.3635 8.25156 21.8616 7.75324C22.858 6.75703 22.858 5.1361 21.8629 4.14123C21.3803 3.65535 20.7383 3.38763 20.0544 3.38763C19.3708 3.38763 18.7285 3.65535 18.248 4.13967ZM21.1262 7.01808C20.5352 7.60905 19.5739 7.60816 18.9834 7.01808C18.6977 6.73215 18.5402 6.3518 18.5402 5.94657C18.5402 5.54133 18.6977 5.16098 18.9849 4.87349C19.2702 4.58601 19.6501 4.4276 20.0544 4.4276C20.459 4.4276 20.8391 4.58601 21.1262 4.87505C21.7172 5.46557 21.7172 6.42734 21.1262 7.01808Z" fill="#BFA764"/>
<path d="M5.92698 12.6594C5.7237 12.4561 5.39466 12.4561 5.1916 12.6594C4.98854 12.8624 4.98854 13.1915 5.1916 13.3945L12.6051 20.808C12.7067 20.9098 12.8397 20.9604 12.9728 20.9604C13.1059 20.9604 13.239 20.9098 13.3405 20.808C13.5436 20.605 13.5436 20.2759 13.3405 20.0729L5.92698 12.6594Z" fill="#BFA764"/>
<path d="M8.00645 10.5803C7.80316 10.3772 7.47413 10.3772 7.27107 10.5803C7.06801 10.7833 7.06801 11.1124 7.27107 11.3157L14.6846 18.7292C14.7861 18.8307 14.9192 18.8814 15.0523 18.8814C15.1854 18.8814 15.3184 18.8307 15.42 18.7292C15.623 18.5259 15.623 18.1969 15.42 17.9938L8.00645 10.5803Z" fill="#BFA764"/>
</g>
<defs>
<clipPath id="clip0">
<rect width="26" height="26" fill="white"/>
</clipPath>
</defs>
</svg>
